{"title":"War.Of.The.Arrows.2011.DUBBED.BRRip.XviD.AC3-PRESTiGE.","uid":7031302,"size":2274549131,"categoryP":"video","categoryS":"movies","magnet":"?xt=urn:btih:82700f9aa2e9fbb4724e61463bea71389310f3b6&amp;dn=War.Of.The.Arrows.2011.DUBBED.BRRip.XviD.AC3-PRESTiGE.&amp;tr=udp%3A%2F%2Ftracker.openbittorrent.com%3A80&amp;tr=udp%3A%2F%2Fopen.demonii.com%3A1337&amp;tr=udp%3A%2F%2Ftracker.coppersurfer.tk%3A6969&amp;tr=udp%3A%2F%2Fexodus.desync.com%3A6969","seeders":0,"leechers":1,"uploader":"moviesp2p","files":5,"time":1329225135,"description":"\n*******************************************************************************\n           War.Of.The.Arrows.2011.DUBBED.BRRip.XviD.AC3-PRESTiGE\n*******************************************************************************\n\n\nGeneral Information:\n\nComplete name                            : War.Of.The.Arrows.2011.DUBBED.BRRip.XviD.AC3-PRESTiGE\nFormat                                   : AVI\nFormat/Info                              : Audio Video Interleave\nFormat profile                           : OpenDML\nFile size                                : 2.10 GiB\nDuration                                 : 2h 2mn\nOverall bit rate                         : 2 459 Kbps\nLanguage                                 : English\nSubs                                     : English Subs (If needed)\nSource                                   : 720p-HDChina Many THANKS\nEncoder                                  : akosipalos\n\niMDB: http://www.imdb.com/title/tt2025526/\n\nVideo\n\nID                                       : 0\nFormat                                   : MPEG-4 Visual\nFormat profile                           : Advanced Simple@L5\nFormat settings, BVOP                    : 2\nFormat settings, QPel                    : No\nFormat settings, GMC                     : No warppoints\nFormat settings, Matrix                  : Default (H.263)\nCodec ID                                 : XVID\nCodec ID/Hint                            : XviD\nDuration                                 : 2h 2mn\nBit rate                                 : 2 006 Kbps\nWidth                                    : 720 pixels\nHeight                                   : 304 pixels\nDisplay aspect ratio                     : 2.35:1\nFrame rate                               : 23.976 fps\nColor space                              : YUV\nChroma subsampling                       : 4:2:0\nBit depth                                : 8 bits\nScan type                                : Progressive\nCompression mode                         : Lossy\nBits/(Pixel*Frame)                       : 0.382\nStream size                              : 1.71 GiB (82%)\nWriting library                          : XviD 1.2.1 (UTC 2008-12-04)\n\nAudio\n\nID                                       : 1\nFormat                                   : AC-3\nFormat/Info                              : Audio Coding 3\nMode extension                           : CM (complete main)\nCodec ID                                 : 2000\nDuration                                 : 2h 2mn\nBit rate mode                            : Constant\nBit rate                                 : 448 Kbps\nChannel(s)                               : 6 channels\nChannel positions                        : Front: L C R, Side: L R, LFE\nSampling rate                            : 48.0 KHz\nBit depth                                : 16 bits\nCompression mode                         : Lossy\nStream size                              : 392 MiB (18%)\nAlignment                                : Split accross interleaves\nInterleave, duration                     : 500 ms (11.99 video frames)\nInterleave, preload duration             : 500 ms","torrent":{"xt":"urn:btih:82700f9aa2e9fbb4724e61463bea71389310f3b6","amp;dn":"War.Of.The.Arrows.2011.DUBBED.BRRip.XviD.AC3-PRESTiGE.","amp;tr":["udp%3A%2F%2Ftracker.openbittorrent.com%3A80","udp%3A%2F%2Fopen.demonii.com%3A1337","udp%3A%2F%2Ftracker.coppersurfer.tk%3A6969","udp%3A%2F%2Fexodus.desync.com%3A6969"],"infoHash":"82700f9aa2e9fbb4724e61463bea71389310f3b6","infoHashBuffer":{"type":"Buffer","data":[130,112,15,154,162,233,251,180,114,78,97,70,59,234,113,56,147,16,243,182]},"announce":[],"urlList":[]}}